<svg xmlns="http://www.w3.org/2000/svg" width="39" height="42" viewBox="0 0 39 42"><defs><style>.a,.b,.e{fill:#005105;}.a{stroke:#005105;}.c,.e{stroke:none;}.d{fill:none;}</style></defs><g class="a" transform="translate(9)"><circle class="c" cx="10" cy="10" r="10"/><circle class="d" cx="10" cy="10" r="9.5"/></g><g class="b" transform="translate(0 7)"><path class="c" d="M 38.49970245361328 34.50009918212891 L 0.5000012516975403 34.50009918212891 L 0.5000012516975403 27 C 0.5000012516975403 23.66093063354492 1.800211191177368 20.5217399597168 4.161121368408203 18.16070938110352 C 6.461326599121094 15.86040687561035 9.500391960144043 14.5670166015625 12.74293422698975 14.50206565856934 C 14.45055484771729 17.17378425598145 16.90008354187012 18.69980049133301 19.50030136108398 18.69980049133301 C 22.10045051574707 18.69980049133301 24.54977607727051 17.1738109588623 26.25714874267578 14.50207328796387 C 29.49968147277832 14.56702327728271 32.53837585449219 15.86040687561035 34.83858108520508 18.16071891784668 C 37.19948959350586 20.5217399597168 38.49970245361328 23.66093063354492 38.49970245361328 27 L 38.49970245361328 34.50009918212891 Z"/><path class="e" d="M 37.99970245361328 34.00009918212891 L 37.99970245361328 27 C 37.99970245361328 23.79447937011719 36.75149154663086 20.78084945678711 34.48501968383789 18.51425933837891 C 32.34198379516602 16.37112808227539 29.53107833862305 15.13843059539795 26.52174186706543 15.01055908203125 C 24.72817611694336 17.68100166320801 22.19582748413086 19.19980049133301 19.50030136108398 19.19980049133301 C 16.80471801757813 19.19980049133301 14.27215957641602 17.68095016479492 12.47835731506348 15.01054382324219 C 9.468783378601074 15.13828086853027 6.657857418060303 16.3709888458252 4.514681339263916 18.51425933837891 C 2.248211145401001 20.78084945678711 1.000001192092896 23.79447937011719 1.000001192092896 27 L 1.000001192092896 34.00009918212891 L 37.99970245361328 34.00009918212891 M 38.99970245361328 35.00009918212891 L 1.226806602971919e-06 35.00009918212891 L 1.226806602971919e-06 27 C 1.226806602971919e-06 23.52737045288086 1.352221250534058 20.26263046264648 3.807561159133911 17.80716896057129 C 6.262861251831055 15.3517599105835 9.527320861816406 13.99949932098389 12.99960136413574 13.99949932098389 L 13.01894092559814 13.99949932098389 C 14.63872146606445 16.66901969909668 17.00077056884766 18.19980049133301 19.50030136108398 18.19980049133301 C 21.99953079223633 18.19980049133301 24.36170196533203 16.66884994506836 25.98112106323242 13.99949932098389 L 26.00013160705566 13.99949932098389 C 29.47238159179688 13.99949932098389 32.73684310913086 15.3517599105835 35.19214248657227 17.80716896057129 C 37.64748001098633 20.26263046264648 38.99970245361328 23.52737045288086 38.99970245361328 27 L 38.99970245361328 34.99909973144531 L 38.99970245361328 35.00009918212891 Z"/></g></svg>