<svg xmlns="http://www.w3.org/2000/svg" xmlns:xlink="http://www.w3.org/1999/xlink" width="294" height="294" viewBox="0 0 294 294"><defs><style>.a{opacity:0.5;}.b{opacity:0;fill:url(#a);}.c{fill:none;}.d{fill:#00a388;}.e{fill:#333;}.f{opacity:0.1;}.g{fill:#fdb797;}</style><linearGradient id="a" x1="0.5" y1="1" x2="0.5" gradientUnits="objectBoundingBox"><stop offset="0" stop-color="gray" stop-opacity="0"/><stop offset="0.54" stop-color="gray" stop-opacity="0.122"/><stop offset="1" stop-color="gray" stop-opacity="0.102"/></linearGradient></defs><g transform="translate(-0.756 -0.756)"><g class="a" transform="translate(0.256 0.256)"><circle class="b" cx="147" cy="147" r="147" transform="translate(0.5 0.5)"/></g><circle class="c" cx="144.223" cy="144.223" r="144.223" transform="translate(3.49 2.262)"/><path class="d" d="M487.6,716.263a143.531,143.531,0,0,0,79.275-23.725c-5.315-29.044-25.54-30.7-25.54-30.7H429.806s-19.085,1.566-25.046,28.284A143.561,143.561,0,0,0,487.6,716.263Z" transform="translate(-339.754 -424.986)"/><circle class="e" cx="69.612" cy="69.612" r="69.612" transform="translate(76.704 73.833)"/><path class="f" d="M293.15,476.92h44.6V512.6a22.3,22.3,0,0,1-22.294,22.3h0a22.3,22.3,0,0,1-22.3-22.3V476.92Z" transform="translate(-169.301 -275.492)"/><path class="g" d="M294.576,473h41.793a1.414,1.414,0,0,1,1.414,1.414v34.27a22.3,22.3,0,0,1-22.315,22.306h0a22.3,22.3,0,0,1-22.3-22.3V474.414A1.414,1.414,0,0,1,294.576,473Z" transform="translate(-169.312 -273.227)"/><path class="f" d="M544.34,610.476a64.2,64.2,0,0,0,44.6.122V605.11h-44.6Z" transform="translate(-420.411 -392.204)"/><circle class="g" cx="63.935" cy="63.935" r="63.935" transform="translate(82.381 93.387)"/><path class="f" d="M489.49,313.675s26.946,54.694,102.954,22.931l-17.7-27.748L543.377,297.6Z" transform="translate(-388.716 -214.509)"/><path class="e" d="M489.49,311.764s26.946,54.694,102.954,22.923l-17.7-27.748-31.37-11.259Z" transform="translate(-388.716 -213.4)"/><path class="e" d="M487.1,264.609a36.934,36.934,0,0,1,9.156-14.889c12.576-12.432,33.194-15.054,43.768-29.23a8.278,8.278,0,0,1-3.8,11.672c10.132-.068,21.872-.954,27.6-9.287a18.95,18.95,0,0,1-3.2,20.01c8.979.422,18.575,6.5,19.14,15.472.388,5.978-3.377,11.634-8.27,15.062s-10.854,5-16.7,6.29C537.731,283.479,475.963,299.255,487.1,264.609Z" transform="translate(-386.565 -169.951)"/><ellipse class="g" cx="5.948" cy="11.153" rx="5.948" ry="11.153" transform="translate(76.408 146.109)"/><ellipse class="g" cx="5.948" cy="11.153" rx="5.948" ry="11.153" transform="translate(204.294 146.109)"/></g></svg>