<svg xmlns="http://www.w3.org/2000/svg" width="32.723" height="27" viewBox="0 0 32.723 27"><defs><style>.a{fill:rgba(255,255,255,0.04);}.b{fill:rgba(255,255,255,0.05);}.c{fill:none;stroke:#292929;}.d,.e{stroke:none;}.e{fill:#292929;}</style></defs><g transform="translate(0.5)"><g class="a" transform="translate(9.5 16)"><path class="d" d="M 5.5 10.49999713897705 C 2.742990016937256 10.49999713897705 0.5 8.257006645202637 0.5 5.499997138977051 C 0.5 4.730166912078857 0.6658300161361694 4.217556953430176 1.0069500207901 3.932847023010254 C 1.333179950714111 3.660586833953857 1.864169955253601 3.533776998519897 2.677979946136475 3.533776998519897 C 3.608200073242188 3.533776998519897 4.818779945373535 3.703306913375854 6.22052001953125 3.899616956710815 L 6.471039772033691 3.934676885604858 C 6.750100135803223 3.973666906356812 7.010590076446533 4.00896692276001 7.256400108337402 4.042266845703125 C 8.267330169677734 4.17924690246582 8.997739791870117 4.278206825256348 9.755009651184082 4.459947109222412 C 10.01237964630127 4.521717071533203 10.21930980682373 4.529636859893799 10.37082958221436 4.529636859893799 C 10.40472888946533 4.529636859893799 10.43699645996094 4.529183864593506 10.46771335601807 4.528655529022217 C 10.50000190734863 4.791137218475342 10.5 5.30674934387207 10.5 5.499997138977051 C 10.5 8.257006645202637 8.257010459899902 10.49999713897705 5.5 10.49999713897705 Z"/><path class="e" d="M 2.677980422973633 4.033777236938477 C 2.006719589233398 4.033777236938477 1.552289962768555 4.128976821899414 1.327329635620117 4.316726684570313 C 1.110130310058594 4.497997283935547 1 4.896106719970703 1 5.499997138977051 C 1 7.981307029724121 3.01869010925293 9.999997138977051 5.5 9.999997138977051 C 7.98130989074707 9.999997138977051 10 7.981307029724121 10 5.499997138977051 C 10 5.298582077026367 9.998119354248047 5.137687683105469 9.995019912719727 5.00922966003418 C 9.887439727783203 4.996857643127441 9.767728805541992 4.977199554443359 9.638330459594727 4.946146965026855 C 8.905599594116211 4.770286560058594 8.185680389404297 4.672746658325195 7.18927001953125 4.537747383117676 C 6.94281005859375 4.50434684753418 6.681640148162842 4.46895694732666 6.40185022354126 4.429866790771484 L 6.151229858398438 4.394797325134277 C 4.767990112304688 4.201076507568359 3.573369979858398 4.033777236938477 2.677980422973633 4.033777236938477 M 2.677981376647949 3.033772468566895 C 3.698660850524902 3.033772468566895 4.994991302490234 3.223555564880371 6.540239810943604 3.439486503601074 C 7.961150169372559 3.638036727905273 8.899439811706543 3.740416526794434 9.871700286865234 3.973756790161133 C 10.07020092010498 4.021396636962891 10.23475933074951 4.02963924407959 10.37083339691162 4.02963924407959 C 10.44271469116211 4.02963924407959 10.50664520263672 4.027344703674316 10.56350231170654 4.027342796325684 C 10.92620277404785 4.02733325958252 11 4.120724678039551 11 5.499997138977051 C 11 8.537567138671875 8.537569999694824 10.99999713897705 5.5 10.99999713897705 C 2.462430000305176 10.99999713897705 0 8.537567138671875 0 5.499997138977051 C 0 3.585577964782715 0.9382114410400391 3.033772468566895 2.677981376647949 3.033772468566895 Z"/></g><g class="b" transform="translate(5.144)"><path class="d" d="M 26.57871627807617 23.40326118469238 L 0.4999962449073792 18.7666072845459 L 0.4999962449073792 8.065338134765625 L 26.57871627807617 0.6617037653923035 L 26.57871627807617 23.40326118469238 Z"/><path class="e" d="M 26.07871627807617 1.323408126831055 L 0.9999961853027344 8.443146705627441 L 0.9999961853027344 18.3476619720459 L 26.07871627807617 22.80652236938477 L 26.07871627807617 1.323408126831055 M 27.07871627807617 0 L 27.07871627807617 24 L -3.814697265625e-06 19.18555068969727 L -3.814697265625e-06 7.687530517578125 L 27.07871627807617 0 Z"/></g><line class="c" y2="10" transform="translate(0 8.5)"/></g></svg>