<svg xmlns="http://www.w3.org/2000/svg" xmlns:xlink="http://www.w3.org/1999/xlink" width="374.128" height="241.887" viewBox="0 0 374.128 241.887"><defs><style>.a{fill:#85848b;}.b{fill:#504f60;}.c{opacity:0.2;}.d{fill:#6c63ff;}.e{fill:#514e7f;}.f{fill:#464353;}.g{fill:#a1616a;}.h,.s{opacity:0.1;}.i{fill:#33323d;}.j{fill:#8dd070;}.k{fill:#fbbebe;}.l,.p{opacity:0.05;}.m{fill:#3f3d56;}.n{fill:url(#a);}.o{fill:#2d293d;}.q{fill:#ffcdd3;}.r{fill:#575988;}</style><linearGradient id="a" x1="0.5" y1="1" x2="0.5" gradientUnits="objectBoundingBox"><stop offset="0" stop-color="gray" stop-opacity="0.251"/><stop offset="0.54" stop-color="gray" stop-opacity="0.122"/><stop offset="1" stop-color="gray" stop-opacity="0.102"/></linearGradient></defs><g transform="translate(0 0)"><rect class="a" width="374.128" height="2.734" transform="translate(0 239.153)"/><path class="b" d="M820.807,650.956c0,2.1-12.258,8.234-26.82,8.234s-25.907-6.131-25.907-8.234,11.8-1.426,26.378-1.426S820.807,648.85,820.807,650.956Z" transform="translate(-524.4 -460.078)"/><path class="c" d="M820.807,653.72c0,2.1-12.258,8.234-26.82,8.234s-25.907-6.131-25.907-8.234" transform="translate(-524.4 -462.842)"/><path class="d" d="M502.776,535.372a16.274,16.274,0,0,0,7.079-.239c.356-.11.749-.356.713-.713a.863.863,0,0,0-.16-.357,22.015,22.015,0,0,1-2.139-4.074.356.356,0,0,0-.132-.185.335.335,0,0,0-.228,0c-1.044.274-1.946.948-2.983,1.237a4.242,4.242,0,0,1-1.625.121c-.471-.053-1.112-.442-1.54-.392C502,532.328,502.594,533.782,502.776,535.372Z" transform="translate(-353.011 -383.084)"/><path class="d" d="M625.315,519.794a12.369,12.369,0,0,0,4.092-3.843.667.667,0,0,0,.11-.332.684.684,0,0,0-.132-.321,13.244,13.244,0,0,0-3.326-3.589,9.7,9.7,0,0,0-1.854,1.711c-.392.414-1.476,1.069-1.486,1.7,0,.356.413.77.606,1.069.26.385.506.777.741,1.176A13.964,13.964,0,0,1,625.315,519.794Z" transform="translate(-430.855 -371.452)"/><path class="e" d="M487,544.738a1.586,1.586,0,0,1-.285,1.034,1.4,1.4,0,0,1-.6.356c-3.3,1.183-7.129-.292-10.426.873-.677.239-1.319.585-2,.813a10.878,10.878,0,0,1-2.5.442c-1.166.11-2.338.182-3.508.214a8.435,8.435,0,0,1-2.645-.232,3.176,3.176,0,0,1-2.028-1.608,1.543,1.543,0,0,1-.1-1.144,1.232,1.232,0,0,1,.217-.356,3.125,3.125,0,0,1,.777-.631l1.216-.784a8.16,8.16,0,0,1,1.843-.977c.481-.157.991-.225,1.479-.357a10.04,10.04,0,0,0,4.224-3.155l1.654-1.764a1.665,1.665,0,0,1,.574-.46,1.59,1.59,0,0,1,.713-.068,9.531,9.531,0,0,1,4.509,1.511,5.846,5.846,0,0,0,1.112.656,3.971,3.971,0,0,0,3.108-.385c.424-.228.332-.356.51-.763s.613-.667.991-.3a1.048,1.048,0,0,1,.235.449,12.644,12.644,0,0,1,.221,3.675,1.62,1.62,0,0,0,.071.57,3.223,3.223,0,0,0,.324.528,1.225,1.225,0,0,1,.068.135,3.625,3.625,0,0,1,.239,1.722Z" transform="translate(-327.967 -387.677)"/><path class="f" d="M487,555.722a1.586,1.586,0,0,1-.285,1.034,1.4,1.4,0,0,1-.6.356c-3.3,1.183-7.129-.292-10.426.873-.677.239-1.319.585-2,.813a10.878,10.878,0,0,1-2.5.442c-1.166.11-2.338.182-3.508.214a8.435,8.435,0,0,1-2.645-.232,3.176,3.176,0,0,1-2.028-1.608,1.543,1.543,0,0,1-.1-1.144,1.232,1.232,0,0,1,.217-.356c.192.4.331.937.453,1.13a2.313,2.313,0,0,0,1.547,1.116,3.842,3.842,0,0,0,1.426-.182c2.994-.741,6.177-.752,9.054-1.875a20.931,20.931,0,0,1,2.966-1.141,23.314,23.314,0,0,1,3.208-.26c1.69-.135,3.326-.645,4.99-.912a3.626,3.626,0,0,1,.225,1.732Z" transform="translate(-327.967 -398.661)"/><path class="e" d="M617.439,523.476a6.008,6.008,0,0,1-1.825,3.251,21.261,21.261,0,0,0-2.556,2.795c-.855,1.308-1.24,2.93-2.353,4.035a6.45,6.45,0,0,1-1.426,1.016,9.949,9.949,0,0,1-1.836.845,13.7,13.7,0,0,1-5.186.282,4.665,4.665,0,0,1-1.647-.317,4.961,4.961,0,0,1-.684-.421,3.269,3.269,0,0,1-1.069-1.069,1.069,1.069,0,0,1-.1-.777,1.826,1.826,0,0,1,.5-.756,11.768,11.768,0,0,1,1.255-1.13,7.513,7.513,0,0,0,1.633-1.426,4.606,4.606,0,0,0,.631-1.426,12.647,12.647,0,0,0,.46-2.727,8.647,8.647,0,0,1,.189-1.825c.264-.941.962-1.782.884-2.755a.688.688,0,0,1,.036-.417.58.58,0,0,1,.328-.2,5.81,5.81,0,0,1,1.7-.4,1.986,1.986,0,0,1,1.583.62c.242.292.4.713.759.827a1.2,1.2,0,0,0,.542.021,4.539,4.539,0,0,0,2.5-.766,3.112,3.112,0,0,0,1.034-2.271c0-.324-.146-.663.356-.713.378-.05.677.356.87.606a8.443,8.443,0,0,1,1.668,3.037.893.893,0,0,1,.317-.061,1.379,1.379,0,0,1,1.137.581A2.264,2.264,0,0,1,617.439,523.476Z" transform="translate(-415.411 -375.351)"/><path class="f" d="M617.682,529.854a6.008,6.008,0,0,1-1.825,3.251A21.261,21.261,0,0,0,613.3,535.9c-.855,1.308-1.24,2.93-2.353,4.035a6.456,6.456,0,0,1-1.426,1.016,9.944,9.944,0,0,1-1.836.845,13.7,13.7,0,0,1-5.186.282,4.665,4.665,0,0,1-1.647-.317,4.967,4.967,0,0,1-.684-.421,3.269,3.269,0,0,1-1.069-1.069,2.605,2.605,0,0,1,1.069-.257c.77.043,1.333.77,2.071.995,1.052.317,2.1-.424,3.165-.677.7-.164,1.426-.121,2.114-.356a5.229,5.229,0,0,0,1.565-.948,7.964,7.964,0,0,0,1.672-1.611,10.352,10.352,0,0,0,.98-1.957,27.97,27.97,0,0,1,1.982-3.793,2.678,2.678,0,0,1,.4-.528,5.615,5.615,0,0,1,.545-.4,4.143,4.143,0,0,0,1.258-2.3,4.015,4.015,0,0,1,.282-.766,1.379,1.379,0,0,1,1.137.581A2.263,2.263,0,0,1,617.682,529.854Z" transform="translate(-415.654 -381.73)"/><path class="g" d="M439.03,206.1a7.561,7.561,0,0,1,2.139,2.5c.5.977,3.376,8.555,3.208,9.656.938-.945,4.634-1.1,5.582-2.042.4-.4,2.531-2.37,2.852-2.83s2.7-1.426,2.962-1.911c.973-1.743-6.9-8.348-5.892-10.07a.449.449,0,0,0,.082-.271.442.442,0,0,0-.132-.21,11.806,11.806,0,0,0-2.278-1.558,3.612,3.612,0,0,1-1.736-2.067,7.487,7.487,0,0,0-2.014,1.362q-2.167,1.857-4.26,3.789c-.545.506-1.6,1.18-1.854,1.9C437.39,205.121,438.509,205.674,439.03,206.1Z" transform="translate(-311.747 -169.109)"/><path class="e" d="M459.39,214.13a23.2,23.2,0,0,0-3.372,2.759,6.712,6.712,0,0,0-2.139,3.436c-.1.531-.086,1.069-.168,1.608-.356,2.335-2.374,4.046-3.265,6.231a10.8,10.8,0,0,0-.567,2.085,24.644,24.644,0,0,0-.41,4.092c-.021,1.33,1.283,2.246,1.761,3.486a21.29,21.29,0,0,1,.848,3.789,44.886,44.886,0,0,0,2.139,7.022c1.757,4.855,7.453,18.275,9.211,23.134,5.386-1.351,19.723-4.456,24.492-7.3,1.59-.948-11.032-11.645-9.332-12.383a.634.634,0,0,0,.478-.895c-1.7-7.436-7.019-13.545-9.432-20.785-.838-2.513-2.342-4.659-3.483-7.047-1.034-2.164-1.586-4.555-2.823-6.612a4.17,4.17,0,0,0-.9-1.123,5.318,5.318,0,0,0-.995-.6C460.726,214.679,460.07,214.476,459.39,214.13Z" transform="translate(-319.36 -179.946)"/><circle class="g" cx="8.43" cy="8.43" r="8.43" transform="translate(119.138 19.284)"/><path class="f" d="M466.4,205.738a2.827,2.827,0,0,1,3.169-.456,1.532,1.532,0,0,1,.941,1.522l4.181.064a8.4,8.4,0,0,1,1.982.182,2.88,2.88,0,0,1,1.654,1.037c.05.068.107.15.193.16a.307.307,0,0,0,.193-.064,3.629,3.629,0,0,1,2.082-.356,11.246,11.246,0,0,1,6.12,2.688,1.978,1.978,0,0,1,.713.888c.146.474-.029,1.069.356,1.408,0,3.921,1.347,7.585,2.246,11.407a5.116,5.116,0,0,0,1.265,1.818,7.334,7.334,0,0,1,1.351,2.018c.763,1.982-.289,4.313.453,6.3a10.8,10.8,0,0,0,1.426,2.263,5.853,5.853,0,0,1,1.219,2.923c.032.478-.029.959,0,1.426a8.628,8.628,0,0,0,.356,1.893q.456,1.725.955,3.447c.542,1.854,1.248,3.853,2.909,4.841-4.01.681-8.238,1.347-12.059-.046a6.251,6.251,0,0,1-1.5-.752c-1.379-.984-2.046-2.666-2.641-4.256a20.1,20.1,0,0,1-1.472-5.493,6.306,6.306,0,0,0-.253-1.782,5.074,5.074,0,0,0-2.367-2.231,11.364,11.364,0,0,1-2.852-2.217,4.43,4.43,0,0,1-1.155-3.329c.071-.588.3-1.155.324-1.747a1.368,1.368,0,0,0-.809-1.426c-2.919-.884-4.313-4.342-4.962-7.322a23.506,23.506,0,0,1-.374-4.67L470,212.835a4.014,4.014,0,0,1-1.312-2.884,3.422,3.422,0,0,0-.018-.955,2.634,2.634,0,0,0-.67-1.016A9.07,9.07,0,0,1,466.4,205.738Z" transform="translate(-330.256 -174.063)"/><path class="f" d="M440.15,229.606a23.346,23.346,0,0,1-.093,2.83c-.082.356-.225.713-.328,1.044a6.131,6.131,0,0,0,.389,3.967,22.1,22.1,0,0,0,2.028,3.511,5.7,5.7,0,0,1,.649,1.215,6.29,6.29,0,0,1,.25,1.387,43.066,43.066,0,0,0,.991,5.6c.4,1.6,4.933,15.249,5.988,16.515a1.344,1.344,0,0,0,.813.553,1.48,1.48,0,0,0,.692-.143l2.139-.82a1.4,1.4,0,0,0,.5-.271,1.276,1.276,0,0,0,.307-.841c.153-1.74-4.392-15.488-4.969-17.131-1.747-4.962-4.071-9.745-5.208-14.882-.317-1.426-.485-3.622-1.529-4.759-.431-.471-.285-.271-.8-.025a5.855,5.855,0,0,0-.756.4A2.474,2.474,0,0,0,440.15,229.606Z" transform="translate(-312.985 -188.293)"/><path class="f" d="M556.62,320.79" transform="translate(-388.316 -248.587)"/><path class="d" d="M458.507,234.2c.574,3.033,1.166,6.06,1.754,9.093l8.37-2.192a5.882,5.882,0,0,0-.713-2.5c-.763-1.914-.781-4.046-1.4-6.013-.467-1.5-1.28-2.873-1.718-4.381-.253-.877-.381-1.782-.631-2.67a19.391,19.391,0,0,0-.984-2.549,15.954,15.954,0,0,0-1.825-3.383,5.322,5.322,0,0,0-2.82,1.829,3.95,3.95,0,0,0-.52,1.782c-.146,1.879.535,3.768.31,5.636a16.574,16.574,0,0,0,.175,5.343Z" transform="translate(-324.851 -183.473)"/><path class="f" d="M479.814,341.072c.471,1.782-.21,3.657-.766,5.422a42.022,42.022,0,0,0-1.7,8.163,7.064,7.064,0,0,1-.421,2.064c-.264.6-.713,1.1-1.019,1.665a8.361,8.361,0,0,0-.638,5.012c.121,1.123.3,2.242.528,3.347a8.467,8.467,0,0,1,.217,4.081c.663-.146,1.112.713,1.069,1.387a3.7,3.7,0,0,0,.064,2.007c.82.3.827,1.426.8,2.3a19.333,19.333,0,0,0,.57,4.491q1.861,8.947,3.949,17.844c3.012.934,6.53,1.907,9.4.613a1.886,1.886,0,0,0,1.191-1.2,2.091,2.091,0,0,0-.114-.92l-1.362-4.955a9.1,9.1,0,0,1-.488-3.664c.132-.916.531-1.9.082-2.713-.153-.278-.4-.5-.574-.759-.713-1.044-.339-2.442-.282-3.707a2.938,2.938,0,0,0-.057-.848,4.236,4.236,0,0,0-.406-.93,14.23,14.23,0,0,1-1.568-7.079,1.75,1.75,0,0,0-.125-.923,2.985,2.985,0,0,1-.232-.378,1.034,1.034,0,0,1,.075-.681,6.237,6.237,0,0,1-1.1-1.069,1.536,1.536,0,0,0,.264-2.4.8.8,0,0,0,.381-1.379c-.175-.121-.406-.175-.531-.356-.193-.264-.036-.631.121-.913l.831-1.5c.62-1.116.759-2.5,1.426-3.565a26.715,26.715,0,0,0,2.2-5.012L494,347.9l1.615,1.4a5.1,5.1,0,0,1,1.326,1.511,6.52,6.52,0,0,1,.431,1.811c.592,3.593,2.852,6.708,3.689,10.248a6.748,6.748,0,0,0,.763,2.288,4.989,4.989,0,0,1,.435.656,3.477,3.477,0,0,1,.182,1.087,5.073,5.073,0,0,0,2.139,3.636c.795.545,1.782.92,2.214,1.782a3.322,3.322,0,0,0,.356.759c.385.463,1.216.517,1.38,1.1.093.324-.078.713.1,1a.944.944,0,0,0,.4.3l2.32,1.158c2.6,1.3,3.921,4.277,5.835,6.448a13.9,13.9,0,0,1,1.747,2.31c.827,1.479,1.208,3.336,2.606,4.277a3.941,3.941,0,0,1,1.012.752c.438.577.278,1.387.317,2.114s.6,1.593,1.287,1.372a5.073,5.073,0,0,0,0,2.691,13.546,13.546,0,0,0,8.22-3.329,3.243,3.243,0,0,0,1.337-2.246.805.805,0,0,0-.1-.446,1.273,1.273,0,0,0-.524-.4c-2.171-1.176-2.823-3.9-3.921-6.117a53,53,0,0,0-3.565-5.45c-2.581-3.9-4.342-8.626-8.245-11.2a5.61,5.61,0,0,1-2.288-2.007c-.239-.524-.267-1.123-.456-1.665a1.444,1.444,0,0,0-1.219-1.069,7.472,7.472,0,0,0,.278-2.588,3.267,3.267,0,0,0-.128-1.116,5.428,5.428,0,0,0-.574-1.105,10.6,10.6,0,0,1-1.469-5.7,9.352,9.352,0,0,0-.1-3.076c-.157-.5-.431-.948-.62-1.426a8.912,8.912,0,0,1-.446-2.681l-.214-3.426a16.854,16.854,0,0,0-.442-3.386c-.713-2.659-1.426-13.8-3.867-15.053s-6.637,7.318-9.385,7.486a12.224,12.224,0,0,0-3.565.688A17.367,17.367,0,0,0,488,334.485l-5.055,4.245A18.625,18.625,0,0,1,479.814,341.072Z" transform="translate(-335.895 -249.995)"/><path class="f" d="M416.279,165.392a6.355,6.355,0,0,1,4.9-2.392,11.424,11.424,0,0,1,5.422,1.362,6.7,6.7,0,0,0,1.583.649c.891.182,1.882-.061,2.688.356,1.069.567,1.276,2.01,1.183,3.208s-.317,2.527.321,3.565a8.246,8.246,0,0,1,.617.93,3.076,3.076,0,0,1-.05,1.982,12.845,12.845,0,0,1-1.023-1.308,1.2,1.2,0,0,0-1.476-.381c-.46.31-.453.873-.478,1.379s-.153,1.112-.631,1.276a1.023,1.023,0,0,1-1.069-.417c-.816-1-.488-2.591-1.3-3.6-.46-.57-1.226-.848-1.65-1.447-.335-.471-.421-1.069-.713-1.576s-.973-.877-1.426-.528a1.928,1.928,0,0,0-.381.51,2.192,2.192,0,0,1-2.6.784,4.352,4.352,0,0,0-1.126-.488,1.394,1.394,0,0,0-1.287.713,2.784,2.784,0,0,0-.356,1.49,3.433,3.433,0,0,1-.278,2.042,2.113,2.113,0,0,1-.57.542,1.775,1.775,0,0,1-1.975.2,1.483,1.483,0,0,1-.442-1.383,11.184,11.184,0,0,1,.421-1.461c.314-1.105-.1-2.349.246-3.39A10.822,10.822,0,0,1,416.279,165.392Z" transform="translate(-296.621 -147.038)"/><path class="d" d="M432.772,212.845a1.3,1.3,0,0,0,.078.774,1.23,1.23,0,0,0,.421.4,8.647,8.647,0,0,0,3.971,1.287,1.208,1.208,0,0,1,.549.143.965.965,0,0,1,.232,1.1,2.877,2.877,0,0,0-.253,1.176c.1.745.987,1.069,1.732,1.18a4.03,4.03,0,0,0,3.016-.588,4.66,4.66,0,0,0,1.244-1.864c2.046-4.7,2.763-9.9,4.833-14.586a3.1,3.1,0,0,0,.31-.977.962.962,0,0,0-.385-.9c-.385-.239-.984-.1-1.244-.478-.128-.189-.114-.446-.228-.645-.239-.424-.866-.356-1.294-.6-.335-.178-.567-.545-.941-.617a1.183,1.183,0,0,0-.973.421,12.533,12.533,0,0,0-2.531,4.26,49.937,49.937,0,0,1-3.622,6.716,3.916,3.916,0,0,0-1.134-2.221c-.638-.128-1.454.991-1.8,1.408a8.969,8.969,0,0,0-1.982,4.605Z" transform="translate(-308.597 -169.343)"/><path class="h" d="M461.974,200.32a1.707,1.707,0,0,0-1.322.663,3.772,3.772,0,0,0-.552,1.782A15.488,15.488,0,0,1,458,208.4" transform="translate(-324.85 -171.059)"/><path class="h" d="M467.222,204.31a2.035,2.035,0,0,0-1.729,1.037,5.829,5.829,0,0,0-.435,1.761,9.663,9.663,0,0,1-1.729,3.7" transform="translate(-328.28 -173.626)"/><path class="i" d="M351.879,369.634v-4.427a12.29,12.29,0,0,0-12.291-12.287H164.751a12.291,12.291,0,0,0-12.291,12.287v8.163Z" transform="translate(-128.221 -269.264)"/><path class="j" d="M323.369,289.086s-.5,30.962,4.99,41.149S336.2,384.74,336.2,384.74s57.546,5.953,97.647-7.129,125.429-18.432,125.429-18.432L544.9,262.263s-71.038-4.555-111.449,14.718S323.369,289.086,323.369,289.086Z" transform="translate(-238.201 -210.619)"/><path class="h" d="M323.369,289.086s-.5,30.962,4.99,41.149S336.2,384.74,336.2,384.74s57.546,5.953,97.647-7.129,125.429-18.432,125.429-18.432L544.9,262.263s-71.038-4.555-111.449,14.718S323.369,289.086,323.369,289.086Z" transform="translate(-238.201 -210.619)"/><path class="j" d="M358.481,312.751s-1.8,25.547,2.716,33.71,4.727,44.6,4.727,44.6,51.789,2.4,88.629-10.138,114.254-20.674,114.254-20.674l-8.8-79.258s-64.055-.659-101.44,16.992S358.481,312.751,358.481,312.751Z" transform="translate(-260.577 -222.974)"/><ellipse class="h" cx="13.445" cy="28.837" rx="13.445" ry="28.837" transform="translate(176.952 87.871) rotate(-7.1)"/><path class="c" d="M469.812,130.66S400.8,148.126,368.255,178.87s-101.055,45.3-101.055,45.3,9.025,29.618,17.374,37.631,24.182,49.476,24.182,49.476,56.594-12,90.743-36.765,113.734-56.045,113.734-56.045Z" transform="translate(-202.061 -126.229)"/><path class="j" d="M264.29,211.739s9.022,29.621,17.363,37.634,24.182,49.472,24.182,49.472,56.6-11.995,90.753-36.761,113.73-56.035,113.73-56.035L466.9,118.23s-69.01,17.466-101.554,48.211S264.29,211.739,264.29,211.739Z" transform="translate(-200.189 -118.23)"/><path class="h" d="M264.29,211.739s9.022,29.621,17.363,37.634,24.182,49.472,24.182,49.472,56.6-11.995,90.753-36.761,113.73-56.035,113.73-56.035L466.9,118.23s-69.01,17.466-101.554,48.211S264.29,211.739,264.29,211.739Z" transform="translate(-200.189 -118.23)"/><path class="j" d="M308,233.572s6.127,24.87,12.932,31.25,18.179,40.992,18.179,40.992,50.025-13.609,81.24-36.85S522.757,214.26,522.757,214.26l-32.69-72.76s-61.164,19.024-91.331,47.3S308,233.572,308,233.572Z" transform="translate(-228.318 -133.205)"/><ellipse class="h" cx="13.445" cy="28.837" rx="13.445" ry="28.837" transform="translate(154.343 74.295) rotate(-24.97)"/><path class="h" d="M356.617,389.617V512.594a10.633,10.633,0,0,1-10.637,10.633H163.119a10.633,10.633,0,0,1-10.629-10.633V377.22c5.24,1.946,5.24,1.946,10.629,1.782H345.981A10.637,10.637,0,0,1,356.617,389.617Z" transform="translate(-128.24 -284.902)"/><path class="b" d="M356.617,394V516.978a10.637,10.637,0,0,1-10.637,10.633H163.119a10.633,10.633,0,0,1-10.629-10.633V381.6c5.24,1.943,5.24,1.943,10.629,1.782H345.981A10.637,10.637,0,0,1,356.617,394Z" transform="translate(-128.24 -287.72)"/><path class="h" d="M619.326,543.937v39.328H581.186a19.665,19.665,0,1,1,0-39.329Z" transform="translate(-391.47 -392.19)"/><path class="i" d="M620.786,541v39.335H582.646a19.665,19.665,0,1,1,0-39.329Z" transform="translate(-392.409 -390.302)"/><circle class="h" cx="7.667" cy="7.667" r="7.667" transform="translate(184.398 163.745)"/><circle class="d" cx="7.667" cy="7.667" r="7.667" transform="translate(184.918 162.704)"/><path class="k" d="M865.8,530.115c.3,3.283-2.182,6.47-1.458,9.685.157.688.453,1.337.56,2.032.3,1.911-.838,3.718-1.925,5.315l-9.339,13.7a8.5,8.5,0,0,1-1.333,1.647c-1.782,1.59-4.463,1.426-6.808,1.9a11.634,11.634,0,0,0-4.563,2.018.292.292,0,0,0-.043.4,3.921,3.921,0,0,0,3.393,1.593c.246.324,0,.8-.356,1.03-.5.356-1.191.442-1.29,1.29a1.4,1.4,0,0,0,.171.856,2.655,2.655,0,0,0,1.633,1.137c3.233.987,6.726-.748,9.147-3.112s4.156-5.347,6.53-7.753c1.315-1.33,2.809-2.47,4.163-3.761a47.659,47.659,0,0,0,6.83-8.836,9.859,9.859,0,0,0,1.479-3.008c.257-1.094.135-2.2.424-3.258a12,12,0,0,1,2.239-3.661,12.112,12.112,0,0,0,2.545-7.881,7.556,7.556,0,0,0-4.613-6.541,4.1,4.1,0,0,0-2.584-.157,6.139,6.139,0,0,0-2.631,2.092l-1.782,2.05a4.805,4.805,0,0,0-1.034,1.568,1.643,1.643,0,0,0,.356,1.743" transform="translate(-571.22 -379.755)"/><path class="l" d="M865.8,530.115c.3,3.283-2.182,6.47-1.458,9.685.157.688.453,1.337.56,2.032.3,1.911-.838,3.718-1.925,5.315l-9.339,13.7a8.5,8.5,0,0,1-1.333,1.647c-1.782,1.59-4.463,1.426-6.808,1.9a11.634,11.634,0,0,0-4.563,2.018.292.292,0,0,0-.043.4,3.921,3.921,0,0,0,3.393,1.593c.246.324,0,.8-.356,1.03-.5.356-1.191.442-1.29,1.29a1.4,1.4,0,0,0,.171.856,2.655,2.655,0,0,0,1.633,1.137c3.233.987,6.726-.748,9.147-3.112s4.156-5.347,6.53-7.753c1.315-1.33,2.809-2.47,4.163-3.761a47.659,47.659,0,0,0,6.83-8.836,9.859,9.859,0,0,0,1.479-3.008c.257-1.094.135-2.2.424-3.258a12,12,0,0,1,2.239-3.661,12.112,12.112,0,0,0,2.545-7.881,7.556,7.556,0,0,0-4.613-6.541,4.1,4.1,0,0,0-2.584-.157,6.139,6.139,0,0,0-2.631,2.092l-1.782,2.05a4.805,4.805,0,0,0-1.034,1.568,1.643,1.643,0,0,0,.356,1.743" transform="translate(-571.22 -379.755)"/><path class="m" d="M915.989,770.3a10.81,10.81,0,0,1-6.951,1.03c-.381-.046-.834-.075-1.069.221-.356.428.064,1.069.5,1.4a10.284,10.284,0,0,0,4.773,1.964,31.434,31.434,0,0,0,4.67.31,78.933,78.933,0,0,0,12.765-.467,1.805,1.805,0,0,0,.713-.207,1.3,1.3,0,0,0,.527-.8,3.181,3.181,0,0,0-1.108-3.037,9.307,9.307,0,0,0-2.976-1.6l-3.707-1.444c-.87-.339-2.263-1.237-3.208-1.166C919.14,766.631,917.461,769.433,915.989,770.3Z" transform="translate(-614.339 -535.42)"/><path class="l" d="M915.989,770.3a10.81,10.81,0,0,1-6.951,1.03c-.381-.046-.834-.075-1.069.221-.356.428.064,1.069.5,1.4a10.284,10.284,0,0,0,4.773,1.964,31.434,31.434,0,0,0,4.67.31,78.933,78.933,0,0,0,12.765-.467,1.805,1.805,0,0,0,.713-.207,1.3,1.3,0,0,0,.527-.8,3.181,3.181,0,0,0-1.108-3.037,9.307,9.307,0,0,0-2.976-1.6l-3.707-1.444c-.87-.339-2.263-1.237-3.208-1.166C919.14,766.631,917.461,769.433,915.989,770.3Z" transform="translate(-614.339 -535.42)"/><path class="f" d="M932.916,601.11c-1.543,2.053-3.14,4.424-2.759,6.965a15.526,15.526,0,0,0,1.536,3.843,27.113,27.113,0,0,1,1.554,5.4c.577,2.688,1.159,5.382,1.511,8.113.4,3.083-1.49,12.005-1.665,15.11a3.193,3.193,0,0,1-.652,2.1c-.2.214-.474.385-.567.663a1.133,1.133,0,0,0,.125.784,8.626,8.626,0,0,0,4.634,4.256,36.649,36.649,0,0,0,8.936,2.349,1.783,1.783,0,0,0,.841-.11,1.636,1.636,0,0,0,.649-.745c1.551-2.966.061-13.51.082-16.857.021-2.791.681-5.564.56-8.352-.1-2.239-.713-4.427-.916-6.659a39.3,39.3,0,0,1,.987-10.947c.513-2.773,1.03-5.546,1.69-8.284a15.906,15.906,0,0,1,1.782-4.809c.713-1.151,1.715-2.114,2.545-3.208a14.48,14.48,0,0,0,2.852-10.6c-.05-.356-5.347,1.344-5.814,1.547A18.111,18.111,0,0,0,945.645,585a43.564,43.564,0,0,0-3.265,4.039q-2.278,2.777-4.5,5.593Q935.347,597.852,932.916,601.11Z" transform="translate(-628.667 -415.447)"/><path class="l" d="M932.916,600.792c-1.543,2.053-3.14,4.427-2.759,6.965a15.493,15.493,0,0,0,1.536,3.846,27.082,27.082,0,0,1,1.554,5.4c.577,2.691,1.159,5.386,1.511,8.113.4,3.087-1.49,12.005-1.665,15.11a3.2,3.2,0,0,1-.652,2.1c-.2.21-.474.381-.567.659a1.129,1.129,0,0,0,.125.784,8.73,8.73,0,0,0,4.634,4.277,34.433,34.433,0,0,0,8.936,1.672,1.782,1.782,0,0,0,.841-.11,1.611,1.611,0,0,0,.649-.741c1.551-2.966.061-12.832.082-16.183.021-2.795.681-5.564.56-8.355-.1-2.239-.713-4.427-.916-6.655a39.31,39.31,0,0,1,.987-10.95c.513-2.77,1.03-5.543,1.69-8.284a15.906,15.906,0,0,1,1.782-4.809c.713-1.151,1.715-2.114,2.545-3.208a14.472,14.472,0,0,0,2.852-10.6c-.05-.356-5.347,1.344-5.814,1.547a18.2,18.2,0,0,0-5.183,3.336,43.038,43.038,0,0,0-3.265,4.035q-2.278,2.777-4.5,5.6Q935.347,597.53,932.916,600.792Z" transform="translate(-628.667 -415.254)"/><circle class="k" cx="8.651" cy="8.651" r="8.651" transform="translate(278.423 123.141)"/><path class="k" d="M896.789,483.959a11.2,11.2,0,0,0,7.183,5.012l-.652,2.37c-1.126,4.071-2.392,8.377-5.536,11.2a5.206,5.206,0,0,0-.877-4.049,15.264,15.264,0,0,0-2.937-3.069l-4.98-4.313a1.5,1.5,0,0,1-.356-.421,1.265,1.265,0,0,1,0-.948c.635-1.975,2.445-3.208,3.921-4.541a13.575,13.575,0,0,0,1.971-2.3C895.52,481.486,896.137,482.911,896.789,483.959Z" transform="translate(-601.923 -352.531)"/><path class="f" d="M853.957,451.027l-.2-1.625c1.365.356,2.663-.806,3.536-2.007s1.682-2.616,3.012-3.119c1.615-.606,3.326.356,4.869,1.169a15.4,15.4,0,0,0,5.586,1.818,3.675,3.675,0,0,1,.923.15c1.005.356,1.483,1.618,1.629,2.763a10.8,10.8,0,0,0,.6,3.379c.356.774,1.019,1.347,1.426,2.11,1.069,2.046.036,4.844,1.151,6.851l-2.773-2.542c-.253-.232-.61-.474-.891-.278-.221.157-.239.5-.328.766a1.456,1.456,0,0,1-1.975.713,5.659,5.659,0,0,1-1.782-1.615,10.819,10.819,0,0,0-4.4-3.336,5.646,5.646,0,0,0-4.634.307c-1.294.731-2.242,2.435-3.828,2.5-2.174.082-3.08-3.967-4.085-5.568a1.96,1.96,0,0,0,.57-2.452C852.516,450.945,853.924,450.778,853.957,451.027Z" transform="translate(-578.278 -327.933)"/><path class="g" d="M552.594,317.969a16.826,16.826,0,0,0-1.921,2.018,4.039,4.039,0,0,0-.884,2.591,1.326,1.326,0,0,0,.25.759.642.642,0,0,0,.713.217.959.959,0,0,0,.356-.314,17.192,17.192,0,0,1,1.2-1.3c.153-.153.357-.314.563-.257a.6.6,0,0,1,.242.16,1.639,1.639,0,0,1,.5.784,1.848,1.848,0,0,1-.552,1.518,3.892,3.892,0,0,0-.93,1.376.61.61,0,0,0,0,.442.662.662,0,0,0,.278.235,3.978,3.978,0,0,0,3.365.221c.713-.289,1.347-.784,2.082-1.041a4.816,4.816,0,0,0,.92-.356,1.911,1.911,0,0,0,.816-1.223,5.039,5.039,0,0,0,.053-1.5,17.255,17.255,0,0,0-1.226-5.643.713.713,0,0,0-.207-.3.659.659,0,0,0-.356-.1c-.913-.1-2.41-.563-3.29-.225a2.324,2.324,0,0,0-.777.692C553.624,316.914,552.594,317.73,552.594,317.969Z" transform="translate(-383.92 -245.452)"/><path class="f" d="M533.744,259.267c0-.87-1.069-2.969.631-3.108,0-.93-1.315-1.508-1.069-2.5.078-.328.356-.6.389-.93.107-.952-1.611-1.469-1.326-2.381.107-.356.485-.563.567-.916.193-.823-1.28-1.191-1.308-2.035,0-.285.16-.552.146-.838,0-.356-.31-.627-.481-.937-.446-.795-.228-2.025-1.041-2.435.538.046.713-.752.492-1.24s-.674-.913-.677-1.454a2.193,2.193,0,0,0,0-.592c-.15-.52-1-.563-1.144-1.069a4.559,4.559,0,0,1-.018-.585c-.057-.4-.471-.659-.859-.774a3.5,3.5,0,0,1-1.148-.41c-.25-.189-.538-.5-.806-.356-.1.061-.15.175-.225.26-.321.374-.934.21-1.337-.064a5.49,5.49,0,0,1-2.035-3.675c-.253-1.415-.246-2.877-.563-4.277a9.154,9.154,0,0,0-.385-1.283,6.748,6.748,0,0,1-.6-1.276c-.064-.82,1.633-.26,2.278-.178a10.143,10.143,0,0,1,1.85.356,19.772,19.772,0,0,1,1.893.831c2.574,1.137,5.682,1.276,7.749,3.187a6.5,6.5,0,0,0,2.139,1.736,9.677,9.677,0,0,1,1.2.31c.98.46,1.134,1.761,1.668,2.7a5.3,5.3,0,0,1,.438.784,3.021,3.021,0,0,1,.143,1l.075,2.47a91.09,91.09,0,0,1-.2,12.4,10.168,10.168,0,0,0,.046,4.06c.107.356.257.692.357,1.052a6.417,6.417,0,0,1,.135,1.283l.057,1.6a.5.5,0,0,1-.078.356.513.513,0,0,1-.431.1c-2.228-.2-4.481-1.454-6.584-.7" transform="translate(-365.358 -187.555)"/><ellipse class="b" cx="26.363" cy="3.811" rx="26.363" ry="3.811" transform="translate(243.69 187.067)"/><path class="n" d="M757.663,346.333c-.463-1.985-.752-3.729-.752-3.729a7.684,7.684,0,0,0-.863-3.782v-.542h0v-3.992a13.611,13.611,0,0,1,1.009-2.092c.713-1.255,0-5.853,0-5.853s-2.663-6.484-2.018-10.6-5.468-18.265-5.468-18.265a18.037,18.037,0,0,1,.574-4.042,3.087,3.087,0,0,0,.078-.848v-.071c-.093-2.713-2.239-7.8-2.239-7.8l.289-9.688a28.485,28.485,0,0,0-.863-13.385c-.781-2.677-1.28-4.819-1.6-6.473-.036-.185-.071-.356-.1-.538,4.595-.713,8.106-1.283,8.106-1.283s-2.666-11.153-4.466-13.107-3.24-8.088-3.24-8.088-.937-7.874.577-10.177,1.729-6.274,1.729-6.274,3.454-2.5,3.889-3.625a18.5,18.5,0,0,0,1.151-4.948c0-1.322-.431-2.5-.289-3.208s-1.009-3.347-.431-4.6a3.375,3.375,0,0,0,.228-1.208.158.158,0,0,0,0-.036h0a16.94,16.94,0,0,0-.3-3.272,9.286,9.286,0,0,0-3.422-1.829l-.075-.3-.2-.784a3.81,3.81,0,0,0-.339-.2v-.285l-.032-1.133.542-2.545c1.069-4.427-4.844-5.087-4.844-5.087a3.119,3.119,0,0,0-1.675-1.469c-1.187-.417-.2,6.659.356,7.129a27.885,27.885,0,0,1,2.331,3.65h0l.1.178a2.494,2.494,0,0,0-.271.285l.225,1.536.036.235a6.377,6.377,0,0,0-.945,1.608,3.468,3.468,0,0,1,.866,2.5,7.994,7.994,0,0,0,.356,3.066c-.064-.075-.823-.895-1.583-.7s-2.88.838-2.88.838-1.583.278-1.426.627-1.069,1.882-1.069,1.882l-4.256-4.035c-.043-.121-.089-.242-.125-.356a9.811,9.811,0,0,1-.356-1.782,9.734,9.734,0,0,0,1.362-.431,2.937,2.937,0,0,0,1.176-.756,4.561,4.561,0,0,0,.688-1.836,27,27,0,0,1,1.579-3.522,11.449,11.449,0,0,0,.8-6.338,4.135,4.135,0,0,0-.652-1.854c-.7-.955-1.957-1.344-2.873-2.107s-1.508-1.928-2.577-2.5a5.111,5.111,0,0,0-3.229-.278,17.405,17.405,0,0,0-6.035,2.2,3.141,3.141,0,0,1-2.018.663,2.634,2.634,0,0,1-1.454-1.069.071.071,0,0,0-.029-.114,7.517,7.517,0,0,0-.663,3.187,3.929,3.929,0,0,0,.021.51v.324h0a.813.813,0,0,1-.032.225,1.622,1.622,0,0,1-.4.574,3.853,3.853,0,0,0-.357.474.587.587,0,0,1,.057-.175,2.534,2.534,0,0,0-.442,1.344,1.372,1.372,0,0,0,.321.962,4.636,4.636,0,0,0,.7.556,8.117,8.117,0,0,0-.128,1.426,8.238,8.238,0,0,0,4.014,7.026c.05.118.1.239.143.356a10.149,10.149,0,0,1,.773,4.634,2.173,2.173,0,0,1-.05.335c-.018.111-.107.118-.153.178h0s-7.033.071-8.687-1.426-4.178,3.661-4.178,3.661-2.52.488-3.026,0-3.454-.068-3.454-.068a6.356,6.356,0,0,0-4.4-1.6,12.9,12.9,0,0,0-3.208-1.782h0l-.078-.029h0a3.593,3.593,0,0,0-1.586-.2A32,32,0,0,1,691.444,196c-1.009-1.54-5.81-7.225-5.832-7.25v-.274l-.053-.827a2.96,2.96,0,0,1-.431.036c-.025-.082-.061-.178-.1-.289a15.933,15.933,0,0,0-1.019-2.342s0-1.044.3-1.308-.125-4.1-.125-4.1-3.115-7.282-5.906-1.846c0,0-5.276,3.518-.848,7.617,0,0,1.782.855,2.018,1.533.164.438.763,1.668,1.166,2.5l.182.356-.05.043.064.684.029.264c-.834.474-1.4.945-1.262,1.3a7.8,7.8,0,0,1,.5,1.882s6.124,7.671,6.915,10.947c0,0,16.422,9.76,21.822,10.455l-.955,4.866a38.819,38.819,0,0,0-.214,3.974C707.723,225.26,707,230,707,230s-.937,6.972-1.729,7.949-.649,5.158-.649,5.158a35.234,35.234,0,0,1-1.069,5.924,15.136,15.136,0,0,0-.217,5.928s-2.734,6.274,3.818,2.021c0,0,3.208-.2,6.922-.328v.356c0,.478,0,.995-.025,1.536-.05,3.593-.071,8.555.093,12.291.289,6.623,2.306,19.73,2.306,19.73v6.6a8.982,8.982,0,0,0-.192,1.882,12.248,12.248,0,0,0,1.782,6.591l.506,4.392a17.133,17.133,0,0,1,1.2,4.634,2.433,2.433,0,0,1-.05.417,2.805,2.805,0,0,0-.057.674,37.932,37.932,0,0,0,1.134,6.773s.071,4.809.791,5.09c.617.239-.823,2.77-1.251,3.5a.991.991,0,0,1-.025-.135l-.089.143a3.413,3.413,0,0,0-.225,1.219,1.747,1.747,0,0,0,.8,1.69c1.369.838,2.1,1.533.941,1.811a12.088,12.088,0,0,0-1.269.267.549.549,0,0,0-.061-.16.763.763,0,0,0-.474.841,3.565,3.565,0,0,0,.424,1.618,17.655,17.655,0,0,0,1.95,3.565l.552-.061a2.7,2.7,0,0,1-.321.6,2.3,2.3,0,0,1-.813.713,2.516,2.516,0,0,1-.987.339,2.78,2.78,0,0,0-2.039.991c-.713.93-1.169,2.2.25,3.308l5.151,1.782s8.861,1.151,8.391-.838-.756-3.729-.756-3.729a7.86,7.86,0,0,0-.713-3.525,4.588,4.588,0,0,0-.314-.52l.314-.032s.649-4.4,1.511-5.229c.2-.192.246-.356.2-.456.089-.239-.139-.378-.428-.46l-.064.175a4.2,4.2,0,0,0-.859-.1s-.289-2.3.649-3.137a.888.888,0,0,0,.182-.684,3.681,3.681,0,0,0-.1-.937.453.453,0,0,1-.032.057A33.768,33.768,0,0,0,730,324.818a6.611,6.611,0,0,1,.506-2.927c.577-.838-.075-11.364-.075-11.364s.217-5.087-.431-7.457.791-5.161.791-5.161v-.185l-.082-.8a.213.213,0,0,0,0,.05c-.146-1.347-.421-3.789-.624-4.915-.289-1.6.075-9.268.075-9.268l1.294-3.279,2.306,5.65,2.449,7.528a6.431,6.431,0,0,1,1.24,3.208v.235a4.117,4.117,0,0,0-.029.5,4.477,4.477,0,0,0,.745,2.684s.649,3.565,1.658,4.459a4,4,0,0,1,1.009,2.648,46.29,46.29,0,0,0,1.782,6.06,9.011,9.011,0,0,1,.506,3.5h0v.185s.171,1.846.164,3.393v.552a.159.159,0,0,0,0-.039,5.37,5.37,0,0,1-.15,1.255l-.021.071a.909.909,0,0,1,.025-.26,13.1,13.1,0,0,0-.356,3.208c-.032,1.854.25,4.049,1.372,5.347,1.946,2.231,3.169,1.953,3.169,1.953s-.934,2.787-2.089,3.347a.542.542,0,0,0-.121.078,1.21,1.21,0,0,0-.029-.164,1.358,1.358,0,0,0-.356,1.041,7.477,7.477,0,0,0,1.426,4.131,2.328,2.328,0,0,0,.973.57,1.543,1.543,0,0,1-.182.11,3.877,3.877,0,0,1-.4.189,2.078,2.078,0,0,1-.588.153,2.745,2.745,0,0,0-2.039.991c-.713.927-1.169,2.192.25,3.3l5.151,1.782S758.126,348.319,757.663,346.333Z" transform="translate(-464.928 -155.27)"/><path class="o" d="M800.156,645.834l-4.99-1.782c-1.376-1.112-.937-2.378-.242-3.308a2.667,2.667,0,0,1,1.975-.991,2.366,2.366,0,0,0,.952-.339,2.281,2.281,0,0,0,.791-.713,3.682,3.682,0,0,0,.567-1.928s5.475-1.6,6.972,0a4.056,4.056,0,0,1,.663.973,8.146,8.146,0,0,1,.713,3.525s.278,1.74.731,3.729S800.156,645.834,800.156,645.834Z" transform="translate(-541.253 -451.477)"/><path class="o" d="M868.6,638.921l-4.99-1.782c-1.376-1.112-.937-2.378-.242-3.3a2.634,2.634,0,0,1,1.971-.991,1.847,1.847,0,0,0,.57-.153,3.8,3.8,0,0,0,.385-.189,3.156,3.156,0,0,0,1.358-2.648s5.472-1.6,6.972,0a3.949,3.949,0,0,1,.524.713,7.921,7.921,0,0,1,.834,3.786s.278,1.743.713,3.729S868.6,638.921,868.6,638.921Z" transform="translate(-585.297 -447.024)"/><path class="h" d="M814.1,636.761a4.051,4.051,0,0,1,.663.973h0l-8.2.952a3.682,3.682,0,0,0,.567-1.928S812.6,635.157,814.1,636.761Z" transform="translate(-549.164 -451.469)"/><path class="h" d="M880.939,630.586v1.536c-1.276,2.1-7.446,1.64-9.239.588a3.771,3.771,0,0,0,.385-.189,3.156,3.156,0,0,0,1.358-2.648s5.472-1.6,6.972,0A3.948,3.948,0,0,1,880.939,630.586Z" transform="translate(-591.085 -447.037)"/><path class="f" d="M825.121,467.446a13.974,13.974,0,0,0-.973,2.092v5.507c-1.4,2.3-8.644,1.533-9.624.278s-2-4.52-.9-5.087,2.021-3.347,2.021-3.347-1.187.278-3.069-1.953-1.322-7.179-.973-8.362,0-5.158,0-5.158.071-2.791-.485-3.7a46.006,46.006,0,0,1-1.743-6.06,4.1,4.1,0,0,0-.977-2.648c-.977-.905-1.6-4.463-1.6-4.463a4.573,4.573,0,0,1-.7-3,6.089,6.089,0,0,0-1.187-3.625l-2.37-7.532-2.231-5.646-1.255,3.276s-.356,7.667-.068,9.268.713,5.857.713,5.857-1.394,2.787-.766,5.158.4,7.464.4,7.464.627,10.523.068,11.36a6.8,6.8,0,0,0-.488,2.93s2.852,6.131,1.953,6.969-.627,3.137-.627,3.137,1.95,0,1.116.838-1.465,5.229-1.465,5.229l-8.43.987a17.533,17.533,0,0,1-1.886-3.565c-1.116-2.591.207-2.3,1.33-2.581s.414-.973-.913-1.811-.556-2.72-.556-2.72,2.021-3.415,1.322-3.693-.766-5.09-.766-5.09-1.394-5.7-1.044-7.25-1.116-5.226-1.116-5.226l-.488-4.392a12.084,12.084,0,0,1-1.533-8.3v-6.773s-1.953-13.1-2.231-19.726c-.178-4.242-.128-10.031-.071-13.642.036-2.025.071-3.368.071-3.368l30.113-3.137a25.163,25.163,0,0,0,.545,4.473c.31,1.654.791,3.8,1.547,6.473a29.412,29.412,0,0,1,.838,13.381l-.282,9.692s2.648,6.48,2.092,8.712a18.583,18.583,0,0,0-.563,4.049s5.924,14.151,5.3,18.265,1.95,10.6,1.95,10.6S825.819,466.191,825.121,467.446Z" transform="translate(-534.293 -290.52)"/><path class="l" d="M852.05,510.493l9.168-1.223S856.024,514.57,852.05,510.493Z" transform="translate(-578.439 -369.882)"/><path class="h" d="M871.032,484.14s.314,3.244-1.672,4.463C869.36,488.6,872.914,488.047,871.032,484.14Z" transform="translate(-589.579 -353.71)"/><path class="h" d="M852.905,455.2s-7.664,6.309-10.451,5.785S852.905,455.2,852.905,455.2Z" transform="translate(-572.015 -335.085)"/><path class="h" d="M809.339,521s-5.821,1.322-6,3.661S809.339,521,809.339,521Z" transform="translate(-547.092 -377.431)"/><path class="l" d="M812.375,602.56s-8.223,1.533-5.889,2.577a39.925,39.925,0,0,0,6.17,1.882S815.312,607.158,812.375,602.56Z" transform="translate(-548.848 -429.918)"/><g class="p" transform="translate(249.158 98.349)"><path d="M800.67,612.3a1.622,1.622,0,0,1-.752-1.191l-.086.146s-.766,1.882.56,2.716c.15.1.3.192.428.285.246-.046.51-.082.763-.146C802.705,613.833,802,613.138,800.67,612.3Z" transform="translate(-793.85 -533.77)"/><path d="M831.6,610.306c.228-.207.221-.741.082-1.426a4.007,4.007,0,0,0-.467,2.018A1.74,1.74,0,0,1,831.6,610.306Z" transform="translate(-814.192 -532.335)"/><path d="M827.746,515.59a9.508,9.508,0,0,0-.556,2.563,10.332,10.332,0,0,1,.638-1.761Z" transform="translate(-811.598 -472.299)"/><path d="M881.313,503.953a3.269,3.269,0,0,0,.075-.763c-.1.52-.175,1-.228,1.426C881.206,504.4,881.256,504.192,881.313,503.953Z" transform="translate(-846.33 -464.319)"/><path d="M827.846,582.321a4.466,4.466,0,0,0,.207-1.551,5.263,5.263,0,0,0-.4,1.957A1.87,1.87,0,0,1,827.846,582.321Z" transform="translate(-811.894 -514.245)"/><path d="M811.37,622a27.667,27.667,0,0,0-.959,4.277l-8.43.973a17.53,17.53,0,0,1-1.886-3.565,6.441,6.441,0,0,1-.239-.613c-.506.232-.713.756-.043,2.285a17.813,17.813,0,0,0,1.889,3.565l8.43-.977s.627-4.392,1.461-5.229C812.022,622.314,811.758,622.1,811.37,622Z" transform="translate(-793.707 -540.778)"/><path d="M789.99,462.843s.068,4.809.766,5.087h0c.357-.795.588-1.551.274-1.675-.713-.278-.766-5.09-.766-5.09s-1.394-5.7-1.044-7.25-1.116-5.226-1.116-5.226l-.488-4.392a12.084,12.084,0,0,1-1.533-8.3v-6.773s-1.953-13.1-2.231-19.726c-.178-4.242-.128-10.031-.071-13.642,0-.652.021-1.23.032-1.718l-.239.025s-.039,1.34-.071,3.368c-.057,3.611-.11,9.4.071,13.638.278,6.623,2.228,19.73,2.228,19.73v6.773a12.091,12.091,0,0,0,1.536,8.295l.485,4.392s1.465,3.693,1.116,5.229S789.99,462.843,789.99,462.843Z" transform="translate(-783.448 -394.14)"/><path d="M868.412,625.481a8.152,8.152,0,0,1-1.337-3.311c-.859.777.128,3.793,1.069,4.99.973,1.255,8.223,2.021,9.624-.282v-1.326C875.869,627.417,869.332,626.668,868.412,625.481Z" transform="translate(-837.054 -540.888)"/><path d="M899.377,609.276a14.078,14.078,0,0,0-.977,2.092v.987a14.627,14.627,0,0,1,.713-1.4,4.277,4.277,0,0,0,.307-1.729S899.387,609.262,899.377,609.276Z" transform="translate(-857.425 -532.56)"/><path d="M865.411,593.852a13.781,13.781,0,0,0,.688-1.658s-1.187.278-3.069-1.953c-1.369-1.622-1.447-4.687-1.251-6.691-.356,1.187-.909,6.135.973,8.366A4.965,4.965,0,0,0,865.411,593.852Z" transform="translate(-833.626 -516.034)"/><path d="M840.192,499.854a37.142,37.142,0,0,1,.139,4.131,5.656,5.656,0,0,1,.143-.645c.356-1.187,0-5.158,0-5.158s.071-2.791-.488-3.7-1.725-6.067-1.725-6.067a4.1,4.1,0,0,0-.977-2.648c-.977-.905-1.6-4.463-1.6-4.463a4.587,4.587,0,0,1-.713-3,6.07,6.07,0,0,0-1.183-3.625l-2.37-7.528-2.231-5.646-1.258,3.279s0,.413-.043,1.069L828.9,463.2l2.231,5.636,2.37,7.528a6.07,6.07,0,0,1,1.183,3.625,4.588,4.588,0,0,0,.713,3s.627,3.565,1.6,4.463a4.08,4.08,0,0,1,.973,2.648,45.862,45.862,0,0,0,1.743,6.06C840.274,497.056,840.192,499.854,840.192,499.854Z" transform="translate(-812.042 -437.496)"/></g><path class="q" d="M866.472,197.426l-.524,2.545.032,1.134.021.834-2.909.3-.324-.6h0a27.005,27.005,0,0,0-2.256-3.65c-.538-.449-1.5-7.528-.356-7.108a3.041,3.041,0,0,1,1.618,1.465S867.5,193,866.472,197.426Z" transform="translate(-583.311 -164.97)"/><path class="h" d="M871.683,219.819l-2.909.3-.324-.6h0a2.563,2.563,0,0,1,3.208-.528Z" transform="translate(-588.993 -182.851)"/><path class="d" d="M872.115,221.676l-3.835.888-.082-.57-.218-1.536a2.64,2.64,0,0,1,3.714-.506l.193.781Z" transform="translate(-588.691 -183.328)"/><path class="q" d="M688.6,187.971l-4.1,2.2-.356-.77c-.389-.816-.97-2.046-1.13-2.5-.242-.677-1.95-1.533-1.95-1.533-4.277-4.1.82-7.617.82-7.617,2.7-5.436,5.7,1.846,5.7,1.846s.421,3.839.125,4.1-.3,1.308-.3,1.308a16.092,16.092,0,0,1,.987,2.342C688.528,187.732,688.6,187.971,688.6,187.971Z" transform="translate(-467.301 -155.238)"/><path class="h" d="M697.242,208.892l-4.1,2.2-.356-.77c.577-.485,2.627-2.139,3.3-2.071a4.935,4.935,0,0,0,.97.025C697.174,208.653,697.242,208.892,697.242,208.892Z" transform="translate(-475.948 -176.158)"/><path class="d" d="M697.859,210.636l-4.6,2.267-.093-.987-.064-.684s2.666-2.285,3.454-2.2a4.188,4.188,0,0,0,1.2,0l.054.827Z" transform="translate(-476.147 -176.666)"/><path class="q" d="M817.258,228.637s-20.061,2.263-16.311,1.044c2.609-.852,3.646-2.5,3.864-4.349a10.446,10.446,0,0,0-.745-4.634,20.2,20.2,0,0,0-1.782-3.625s15.328-8.434,12.266-.766a12.366,12.366,0,0,0-.87,3.632,10.261,10.261,0,0,0,.4,3.679,10.954,10.954,0,0,0,3.183,5.019Z" transform="translate(-545.251 -179.275)"/><path class="h" d="M817.795,216.277a12.362,12.362,0,0,0-.87,3.632c-1.444,1.216-3.026,1.134-5.062,1.134-1.561,0-3.294.378-4.541-.374a20.2,20.2,0,0,0-1.782-3.625S820.864,208.61,817.795,216.277Z" transform="translate(-548.508 -179.256)"/><circle class="q" cx="8.295" cy="8.295" r="8.295" transform="translate(254.79 25.732)"/><path class="h" d="M817.258,246.067s-20.061,2.263-16.311,1.044c2.609-.852,3.646-2.5,3.864-4.349a11.189,11.189,0,0,1,4.277-2.278,6,6,0,0,1,3.636-.061,5.167,5.167,0,0,1,1.322.613A10.954,10.954,0,0,0,817.258,246.067Z" transform="translate(-545.251 -196.705)"/><path class="h" d="M872.507,223.861l-3.835.888-.082-.57a3.393,3.393,0,0,1,3.689-1.262Z" transform="translate(-589.083 -185.514)"/><path class="h" d="M697.974,212.127l-4.6,2.267-.093-.987a33.562,33.562,0,0,1,4.634-2.057Z" transform="translate(-476.263 -178.157)"/><path class="h" d="M814.33,390.443c-7.774,1.24-18.824,2.823-20.578,2.288-1.458-.442-6.106-.4-10.152-.257.036-2.025.071-3.368.071-3.368l30.113-3.137A25.155,25.155,0,0,0,814.33,390.443Z" transform="translate(-534.388 -290.533)"/><path class="m" d="M761.775,276.738s-25.583,4.392-28.327,3.565-16.842.068-16.842.068c-6.345,4.253-3.7-2.021-3.7-2.021a15.6,15.6,0,0,1,.21-5.924,36.2,36.2,0,0,0,1.052-5.931s-.139-4.185.627-5.161,1.675-7.945,1.675-7.945.7-4.741.627-5.785.207-3.974.207-3.974l.909-4.88c-5.229-.7-21.124-10.455-21.124-10.455-.766-3.276-6.691-10.943-6.691-10.943a8.069,8.069,0,0,0-.488-1.882c-.417-1.116,5.857-3.347,5.857-3.347s4.67,5.7,5.646,7.25a31.088,31.088,0,0,0,4.32,4.392,3.361,3.361,0,0,1,1.533.2l.082.025h0a12.425,12.425,0,0,1,3.119,1.782,6.06,6.06,0,0,1,4.252,1.6s2.852-.421,3.347.068,2.927,0,2.927,0,2.438-5.158,4.042-3.661,8.409,1.426,8.409,1.426c.905-1.2,3.112-2.067,4.491-2.5a6.027,6.027,0,0,1,3.636-.061,4.612,4.612,0,0,1,1.426.713l4.138,4.042s1.183-1.536,1.044-1.882,1.394-.627,1.394-.627,2.021-.627,2.787-.838,1.469.62,1.533.7a8.337,8.337,0,0,1-.356-3.066,3.622,3.622,0,0,0-.838-2.5c2.438-6,7.945-.977,7.945-.977s.627,3.276.071,4.531.556,3.9.417,4.6.282,1.882.282,3.208A19.6,19.6,0,0,1,760.3,235.5c-.4,1.116-3.764,3.625-3.764,3.625s-.21,3.974-1.675,6.274-.545,10.163-.545,10.163,1.394,6.135,3.137,8.088S761.775,276.738,761.775,276.738Z" transform="translate(-474.084 -178.652)"/><path class="h" d="M780.636,257.03s-.766-2.3-1.465-2.5a16.13,16.13,0,0,1-2.021-.905l.449-.859s2.616.713,3.037,1.486S780.636,257.03,780.636,257.03Z" transform="translate(-530.237 -204.813)"/><path class="h" d="M736.165,247.161c-.139.713-6.345,1.322-6.345,1.322l3.137-3.144h0l.078.029h0a12.426,12.426,0,0,1,3.13,1.793Z" transform="translate(-499.778 -200.031)"/><circle class="r" cx="0.556" cy="0.556" r="0.556" transform="translate(217.879 37.007)"/><circle class="r" cx="0.556" cy="0.556" r="0.556" transform="translate(218.592 38.123)"/><circle class="r" cx="0.556" cy="0.556" r="0.556" transform="translate(219.291 39.153)"/><circle class="r" cx="0.556" cy="0.556" r="0.556" transform="translate(220.022 40.265)"/><circle class="r" cx="0.453" cy="0.453" r="0.453" transform="translate(285.834 40.308)"/><circle class="r" cx="0.453" cy="0.453" r="0.453" transform="translate(285.905 41.338)"/><circle class="r" cx="0.453" cy="0.453" r="0.453" transform="translate(285.966 42.365)"/><path class="h" d="M787,317.72c-.068-.082,15.648,19.762,27.846,8.295C814.857,326.018,795.583,328.631,787,317.72Z" transform="translate(-536.576 -246.61)"/><path class="h" d="M761.7,346.66s9.4.257,10.387,2.962v2.816a1.8,1.8,0,0,1-1.75,0c-.948-.513-6.634-3.4-8.637-2.01Z" transform="translate(-520.295 -265.235)"/><path class="m" d="M762.19,346.66s8.993.246,9.934,2.827v2.681a1.726,1.726,0,0,1-1.675,0c-.905-.485-6.341-3.24-8.259-1.914Z" transform="translate(-520.61 -265.235)"/><path class="h" d="M776.1,289.38a30.253,30.253,0,0,0,3.647,6.256,24.545,24.545,0,0,0,5.7,5.514S776.257,290.67,776.1,289.38Z" transform="translate(-529.562 -228.373)"/><path class="h" d="M767.47,258.73s1.568,6.773,5.611,9.072Z" transform="translate(-524.008 -208.648)"/><path class="h" d="M760.467,260.646c-.039-.125-1.394,5.347,5.211,8.387C765.679,269.034,762.873,268.082,760.467,260.646Z" transform="translate(-519.411 -209.88)"/><path class="h" d="M875.906,247.9a47.035,47.035,0,0,1,4.174,3.137S877.891,247.759,875.906,247.9Z" transform="translate(-593.79 -201.677)"/><path class="o" d="M803.775,200.979a1.308,1.308,0,0,0,1.426,1.294c2.527.157,5.161.267,7.486-.713a2.851,2.851,0,0,0,1.141-.756,4.689,4.689,0,0,0,.663-1.836,26.688,26.688,0,0,1,1.529-3.522,11.8,11.8,0,0,0,.823-6.327,4.278,4.278,0,0,0-.634-1.85c-.67-.959-1.893-1.347-2.78-2.11s-1.458-1.928-2.5-2.5a4.791,4.791,0,0,0-3.13-.278,16.429,16.429,0,0,0-5.839,2.192,2.979,2.979,0,0,1-1.953.663,2.612,2.612,0,0,1-1.426-1.1,7.72,7.72,0,0,0-.6,3.618,1.556,1.556,0,0,1-.018.545,1.641,1.641,0,0,1-.389.574,2.11,2.11,0,0,0-.4,2.606c.267.317.681.492.941.816.467.581.31,1.426.3,2.167a1.116,1.116,0,0,0,.185.734,1.069,1.069,0,0,0,1.023.246,2.784,2.784,0,0,1,1.091-.1,1.828,1.828,0,0,1,.948.713A13.4,13.4,0,0,1,803.775,200.979Z" transform="translate(-542.933 -159.434)"/><g class="s" transform="translate(253.945 24.631)"><path d="M814.124,212.686a2.851,2.851,0,0,1-1.141.756c-2.338.973-4.969.863-7.486.713a1.312,1.312,0,0,1-1.429-1.3,13.005,13.005,0,0,0-2.114-4.9,1.832,1.832,0,0,0-.948-.731,2.924,2.924,0,0,0-1.091.1,1.069,1.069,0,0,1-1.023-.242,1.115,1.115,0,0,1-.185-.734c0-.749.168-1.586-.3-2.167-.26-.324-.674-.5-.941-.82a1.625,1.625,0,0,1-.16-1.661,1.9,1.9,0,0,0-.118,2.221c.267.317.681.492.941.816.467.585.31,1.426.3,2.167a1.109,1.109,0,0,0,.182.734,1.069,1.069,0,0,0,1.027.246,2.784,2.784,0,0,1,1.091-.1,1.829,1.829,0,0,1,.948.713,13.028,13.028,0,0,1,2.114,4.908,1.782,1.782,0,0,0,.617,1.13,1.729,1.729,0,0,0,.784.171c2.527.157,5.161.271,7.486-.713a2.823,2.823,0,0,0,1.141-.756,2.178,2.178,0,0,0,.356-.67A.176.176,0,0,1,814.124,212.686Z" transform="translate(-796.877 -196.578)"/><path d="M799.958,191.351a1.221,1.221,0,0,0,.253-.421,1.55,1.55,0,0,0,0-.545,7.731,7.731,0,0,1,.389-3l-.046-.053a7.663,7.663,0,0,0-.6,3.614,2.588,2.588,0,0,1,0,.406Z" transform="translate(-798.845 -187.33)"/></g><path class="h" d="M812.08,248.552s10.362,1.376,11.292-.182" transform="translate(-552.716 -201.981)"/><path class="h" d="M868.59,236.85s5.76,0,7.026,2.167" transform="translate(-589.083 -194.567)"/><path class="m" d="M945.247,768a9.136,9.136,0,0,1-6.22,2.324c-.585,0-1.394.11-1.4.7a.98.98,0,0,0,.171.478,5.721,5.721,0,0,0,3.208,2.52,11.341,11.341,0,0,0,3.882.246l3.8-.2c.713-.039,1.426-.075,2.139-.164s1.49-.235,2.235-.356a29.229,29.229,0,0,1,5.529-.257,1.674,1.674,0,0,0,1.362-.356c.292-.357.143-1.037.032-1.572-.228-1.1,0-2.256-.21-3.361a5.9,5.9,0,0,0-3.875-4.128c-1.711-.649-4.741-1.394-6.359-.31C947.832,764.7,946.787,766.6,945.247,768Z" transform="translate(-633.514 -533.174)"/><path class="f" d="M955.818,580.452c.335,1.593,1.879,2.812,1.921,4.438.039,1.3-.891,2.4-1.561,3.515a23.45,23.45,0,0,0-1.593,3.607,55.108,55.108,0,0,1-4.677,9.3c-.891,1.426-1.889,2.948-1.686,4.605a6.9,6.9,0,0,0,.809,2.2l2.673,5.311a15.382,15.382,0,0,1,1.365,3.354c.232,1.009.253,2.053.389,3.08.421,3.258,1.95,6.537,1.044,9.7-.078.271-.356.6-.574.41a10.158,10.158,0,0,1,1.526,5.183,7.224,7.224,0,0,0,.025,2.916,3.189,3.189,0,0,1,.417,1.148,7.309,7.309,0,0,1-.153.788,1.738,1.738,0,0,0,1.333,1.618c.716.239,1.5.221,2.221.438,1.39.417,2.385,1.615,3.565,2.445a7.59,7.59,0,0,0,4.106,1.337,1.035,1.035,0,0,0,.606-.121.98.98,0,0,0,.335-.734,4.078,4.078,0,0,0-1.469-3.543,1.6,1.6,0,0,1-.545-.57,1.375,1.375,0,0,1-.05-.638,48.056,48.056,0,0,0-.157-8.769,13.315,13.315,0,0,1-.139-2.791,11.4,11.4,0,0,0,.225-2.321,12.329,12.329,0,0,0-.713-2.224A16.033,16.033,0,0,1,964.7,620a36.3,36.3,0,0,0-1.173-7.129,5.392,5.392,0,0,0-1.109-2.574c-.556-.581-1.454-1.137-1.244-1.911a2.265,2.265,0,0,1,.51-.759,3.048,3.048,0,0,0,.635-2.324,1.044,1.044,0,0,0,1.2-.563,18.794,18.794,0,0,0,9.4-10.694,3.527,3.527,0,0,1,.421-.955,4.3,4.3,0,0,1,1.722-1.116c1.946-.98,3.29-2.816,4.523-4.613a8.152,8.152,0,0,0,1.985-5.757l.111-4.188a2.262,2.262,0,0,0-.078-.82,2.049,2.049,0,0,0-.453-.663,8.052,8.052,0,0,0-4.441-2.4c-1.141-.2-2.306-.164-3.461-.26-2.239-.185-4.449-.88-6.687-.713a10.7,10.7,0,0,0-8.309,5.814C957.679,579.475,957.066,580.43,955.818,580.452Z" transform="translate(-640.313 -410.598)"/><path class="d" d="M907.761,501.641a4.682,4.682,0,0,1-.257,1.907,1.333,1.333,0,0,1-1.565.8c.182-.41-.3-.877-.749-.827a1.4,1.4,0,0,0-.987.848,3.154,3.154,0,0,0-.285,1.936,7.853,7.853,0,0,1,.492,2.431c-.1.684-.6,1.365-.335,2a3.239,3.239,0,0,0,.645.773,2.181,2.181,0,0,1-.232,2.994l6.744.135a4.762,4.762,0,0,0,.838,3.279,20.674,20.674,0,0,0,15.413,10.063,1.34,1.34,0,0,0-.324,2.05,1.9,1.9,0,0,0,2.167.125,15.417,15.417,0,0,0,1.854-1.39,5.7,5.7,0,0,1,3.81-1.027c.845.082,1.665.356,2.513.4,2.5.132,4.634-1.665,7.036-2.4,1.75-.538,3.736-.538,5.2-1.633a2.074,2.074,0,0,0,.97-2.007,3.356,3.356,0,0,0-.713-1.18,20.381,20.381,0,0,1-1.95-3.654,21.852,21.852,0,0,0-4.873-6.53,43.59,43.59,0,0,0-4.833-3.664,8.239,8.239,0,0,0-1.3-.788,14.629,14.629,0,0,1-1.782-.713,9.5,9.5,0,0,1-1.857-2.089c-1.337-1.561-3.39-2.278-5.037-3.5-1.105-.823-2.082-1.907-3.4-2.3-.642-.2-1.322-.21-1.964-.4-1.458-.442-2.52-1.736-3.95-2.26a15.85,15.85,0,0,0-3.565-.453,8.344,8.344,0,0,1-3.725-1.419,4.42,4.42,0,0,0-1.187-.692c-1.807-.549-1.953,2.816-2.139,3.982A38.407,38.407,0,0,0,907.761,501.641Z" transform="translate(-611.79 -359.02)"/><path class="k" d="M874.619,540.082c.3,3.286-2.178,6.47-1.454,9.688.153.684.449,1.337.556,2.032.3,1.907-.838,3.714-1.925,5.311l-9.339,13.706a8.619,8.619,0,0,1-1.333,1.647c-1.782,1.586-4.463,1.426-6.808,1.9a11.763,11.763,0,0,0-4.563,2.018.3.3,0,0,0-.057.41,3.921,3.921,0,0,0,3.39,1.593c.246.321,0,.8-.339,1.03-.5.357-1.191.438-1.29,1.29a1.426,1.426,0,0,0,.171.856,2.663,2.663,0,0,0,1.633,1.133c3.233.991,6.726-.749,9.147-3.112s4.156-5.347,6.53-7.749c1.315-1.333,2.809-2.47,4.163-3.761a47.631,47.631,0,0,0,6.83-8.837,9.779,9.779,0,0,0,1.479-3.008c.253-1.094.135-2.2.424-3.262a11.983,11.983,0,0,1,2.239-3.657,12.1,12.1,0,0,0,2.545-7.885A7.557,7.557,0,0,0,882,534.881a4.145,4.145,0,0,0-2.584-.157,6.121,6.121,0,0,0-2.631,2.1l-1.782,2.046a4.771,4.771,0,0,0-1,1.572,1.643,1.643,0,0,0,.356,1.747" transform="translate(-576.886 -386.175)"/><path class="d" d="M922.1,511.964a5.108,5.108,0,0,0-3.443,1.069,4.9,4.9,0,0,0-.87,1.362,13.559,13.559,0,0,0-1.722,5.418,24.777,24.777,0,0,0,.624,4.527c.193,1.255-.3,2.534-.389,3.8a26.4,26.4,0,0,0,4.912-1.889,16.452,16.452,0,0,1,2.877-1.494c1.465-.488,3.921.356,5.315,1.034.075-.977-.659-2.681-.581-3.661a4.09,4.09,0,0,1,.217-1.212,7.351,7.351,0,0,1,.738-1.173,4.8,4.8,0,0,0-.431-5.621,7.829,7.829,0,0,0-5.019-2.139,21.71,21.71,0,0,0-3.5-.121" transform="translate(-619.632 -371.539)"/></g></svg>